# xmcd
#
# Track frame offsets:
#       150
#       27777
#       43410
#       56605
#       72490
#       92247
#       108130
#       122685
#       136630
#       155917
#       174975
#       193012
#       209140
#
# Disc length: 2912 seconds
#
# Revision: 1
# Processed by: cddbd v1.4PL0 Copyright (c) Steve Scherf et al.
# Submitted via: MusiCat 1.1
#
DISCID=be0b5e0d
DTITLE=Bruno Venturini - Antologia della canzone napoletana - CD 3
DYEAR=1900
DGENRE=
TTITLE0=Santa Lucia
TTITLE1=Piscatore 'e Pusilleco
TTITLE2=Scalinatella
TTITLE3=Cartulina 'e Napule
TTITLE4=Luna caprese
TTITLE5=Munastero 'e Santa Chiara
TTITLE6=Addio a Napoli (Napoli! farewell!)
TTITLE7=Silenzio cantatore...
TTITLE8='a serenata 'e Pulicenella
TTITLE9=Palomma 'e notte
TTITLE10=Serenata a Surriento
TTITLE11=Mandolinate a sera
TTITLE12=Paese mio!
EXTD=0\n\n\n
EXTT0=
EXTT1=
EXTT2=
EXTT3=
EXTT4=
EXTT5=
EXTT6=
EXTT7=
EXTT8=
EXTT9=
EXTT10=
EXTT11=
EXTT12=
PLAYORDER=
